<?xml version="1.0" encoding="utf-8"?>
<!-- Generator: Adobe Illustrator 19.0.0, SVG Export Plug-In . SVG Version: 6.00 Build 0)  -->
<svg version="1.1" class="detalhes_jaqueta adicionais" xmlns="http://www.w3.org/2000/svg" xmlns:xlink="http://www.w3.org/1999/xlink" x="0px" y="0px"
	width="549.8px" height="412px" viewBox="0 0 549.8 412" enable-background="new 0 0 549.8 412" xml:space="preserve">
	<g class="corte">
		<path d="M161.1,134.8c-0.5-5.5-1-11.5-1.3-17.3c-0.3-5.8-0.3-11.4,0-15.2c0-0.5,0.1-1,0.2-1.4
		c-3.4,5.6-6.8,11.3-11.2,19.3c-4.7,8.4-10.4,19.4-14.4,27.4c-4,8.1-6.2,13.2-8.2,16.9c-2,3.7-3.6,6-7.9,13.8
		c-4.3,7.7-11.4,20.9-17.9,33.6c-6.5,12.7-12.5,24.9-18.8,37c-6.3,12.1-13,24.2-17.7,33.5c-4.8,9.4-7.7,16.1-9.4,19.8
		c-1.7,3.7-2.1,4.5-2.4,4.8c-0.2,0.4-0.2,0.4,1.6-2.1c1.8-2.4,5.4-7.3,9.9-13.3c4.5-5.9,9.9-12.8,16.7-21.3
		c6.9-8.5,15.3-18.6,22.1-26.7c6.8-8.1,12.1-14.4,16.6-20c4.5-5.6,8.4-10.7,12.2-15.9c3.8-5.1,7.6-10.3,11-14.7
		c3.4-4.4,6.5-8,9.4-11.2c2.9-3.2,5.5-6,7.5-8.2c1.6-1.7,2.7-3.1,3.7-4.3c-0.1-1.4-0.2-2.8-0.3-4.2c-0.2-2.2-0.5-4.6-0.5-7.2
		c0-2.6,0.2-5.4,0.1-9.2C162,145.1,161.6,140.3,161.1,134.8z"/>
		<path d="M380.3,142.5c-0.4,3.7-0.4,6.7-0.4,9.3c0.1,2.6,0.2,4.6,0.1,6.7c-0.1,2-0.4,4.1-0.9,6.5
		c-0.2,1-0.4,2.1-0.6,3.2c2.6,3.8,5.1,7.6,7.6,10.8c2.7,3.5,5.3,6.3,7.3,8.6c2,2.3,3.5,4.1,8.1,9.8c4.6,5.7,12.3,15.3,19.1,23.8
		c6.7,8.5,12.4,15.9,17.9,22.6c5.5,6.7,10.7,12.6,15.1,18c4.5,5.4,8.2,10.2,12.6,16c4.4,5.8,9.4,12.4,12.7,16.5
		c3.2,4.1,4.6,5.6,5.3,6.3c0.7,0.7,0.7,0.7,0.7,0.7s0,0-5.3-10.7c-5.3-10.7-15.8-32-23.8-47.6c-8-15.6-13.5-25.4-18.9-36
		c-5.4-10.6-10.7-22-15.3-31.4c-4.6-9.5-8.5-17.1-12.1-24c-3.6-6.9-6.9-13.1-10.8-19.9c-3.9-6.9-8.5-14.4-11.6-19.9
		c-2.4-4.3-4-7.3-5.4-10.1c0.1,1.2,0.2,2.5,0.3,3.9c0.1,3.3,0.1,7.4,0.1,11.7c0,4.2,0.1,8.6-0.2,12.9
		C381.5,134.6,380.7,138.8,380.3,142.5z"/>
	</g>
	<g class="vies">
		<path d="M380.6,96.1c1.1,2.5,2.3,5.1,3.6,7.3c1.5,2.7,3.2,5.1,5.1,8.5c1.8,3.4,3.8,7.9,5.8,12
		c2,4.1,4,7.9,5.8,11.5s3.6,7.1,5.3,10.3c1.7,3.1,3.4,5.9,5.9,10.6c2.5,4.7,5.7,11.3,8.8,17.4c3.1,6.2,6.1,12,9.2,18.8
		c3.1,6.9,6.4,14.8,9.5,21.9c3.1,7.1,6,13.3,9.8,21.2c3.7,8,8.2,17.7,11.9,25.2c3.7,7.5,6.7,12.6,9.2,17.1s4.5,8.3,6.7,13
		c2.2,4.7,4.6,10.2,6.9,14.9c2.3,4.7,4.3,8.6,6.8,14.2c2.5,5.5,5.3,12.7,7.9,18.7c2.6,6,4.8,11,7,15.7c2.1,4.7,4.2,9.1,5.8,12.9
		c1.7,3.8,2.9,6.9,3.8,8.4c0.9,1.5,1.3,1.5,1.8,1.2c0.4-0.3,0.8-0.8,0.7-1.9c-0.1-1.1-0.7-2.8-3.1-7.8c-2.4-5-6.7-13.5-10.5-22
		c-3.8-8.5-7.2-17.1-11-25.8c-3.8-8.7-8-17.6-11.8-25.1c-3.7-7.6-7-13.8-9.9-19.4c-2.9-5.6-5.5-10.4-8.4-16.4
		c-2.9-6-6.2-13.2-9.8-21.2c-3.6-8-7.6-16.7-11.1-24.4c-3.5-7.7-6.4-14.3-9.6-21.2c-3.2-6.9-6.7-14-10.1-20.6
		c-3.4-6.6-6.6-12.6-10-18.9c-3.4-6.3-7-12.8-10.3-19.1c-3.2-6.3-6-12.5-9-18.6c-3-6.1-6.1-12.1-8.3-16.3c-2.1-4.2-3.2-6.5-4-8.3
		c-0.5-1-0.9-1.8-1.2-2.5c0.1,1.8,0.2,3.4,0.3,4.7C380.2,94,380.4,95.1,380.6,96.1z M39.7,345.7c2.3-5.1,4.9-11.2,8.4-19.4
		c3.5-8.2,8-18.4,12-27.1s7.8-16,11.4-22.7c3.6-6.7,7.2-12.9,10.3-19.4c3.2-6.5,5.9-13.3,9.4-20.8c3.5-7.5,7.7-15.7,10.9-22.7
		c3.2-7,5.5-12.8,7.9-18.3c2.4-5.5,5-10.7,7.8-16.6c2.9-5.9,6.1-12.6,9.8-19.5s7.9-14,11.5-21c3.7-7,6.8-14,9.3-19.5
		s4.4-9.2,6.1-12.5c1.7-3.2,3.2-5.9,4.3-8c0.9-1.6,1.6-2.8,2.2-4c0.2-1,0.3-2.1,0.4-3.3c-0.6,0.6-1.2,1.3-1.8,2.1
		c-0.8,1.1-1.6,2.4-2.9,4.8c-1.4,2.4-3.3,6-5,9.2c-1.7,3.3-3.3,6.2-5.4,10.4c-2.1,4.1-4.7,9.5-6.8,13.8c-2.1,4.4-3.6,7.8-5,10.4
		c-1.3,2.7-2.5,4.6-3.8,6.6c-1.3,2-2.7,4.1-4.5,7.6c-1.9,3.5-4.2,8.4-6.9,13.7c-2.7,5.3-5.9,10.9-9.4,18.6
		c-3.5,7.7-7.3,17.3-10.4,24.1c-3.1,6.8-5.3,10.7-8.2,16.1c-2.8,5.3-6.3,12-8.5,17.5c-2.3,5.5-3.3,9.6-5,13.4
		c-1.7,3.7-3.9,7-6.4,11.6c-2.5,4.6-5.2,10.5-7.8,15.9c-2.7,5.5-5.3,10.6-8.3,16.7c-3,6.1-6.2,13.2-8.5,18.5
		c-2.3,5.3-3.6,8.8-5,12.5c-1.5,3.6-3,7.4-5,11.4c-2,4-4.4,8.2-6.4,12.3c-2,4.1-3.6,8.1-4.8,11.1c-1.2,3-2,5-2.3,6.1
		c-0.3,1.1,0,1.2,0.3,1.4c0.3,0.2,0.8,0.4,1.1,0.4c0.3,0.1,0.5,0,0.7-0.1c0.2-0.1,0.4-0.3,0.5-0.5c2.5-6,5-11.9,7.3-16.9
		C35.6,354.8,37.5,350.8,39.7,345.7z"/>
		<path d="M372.3,133.3c2.8-2.2,5.3-3.8,7.2-4.8c0.9-0.5,1.8-0.9,2.5-1.2
		c0-0.9,0-1.9,0.1-2.8c-2.7,1.3-5.4,2.8-8.5,5.1c-3.6,2.7-7.7,6.5-11.7,11c-4,4.5-8.1,9.8-11.3,14.7c-3.2,4.9-5.5,9.6-7.4,14.1
		c-1.8,4.6-3.1,9.1-4.1,14.7c-1,5.5-1.6,12.1-2.3,18.6c-0.7,6.6-1.3,13.2-2,21.5c-0.6,8.3-1.3,18.3-1.8,31.1
		c-0.5,12.8-1,28.5-1.2,42.3c-0.3,13.8-0.4,25.8-0.3,33.6c0.1,7.9,0.4,11.6,0.5,17.2c0.1,5.5,0.1,12.9,0.1,22c0,6.5,0,13.9,0,20.4
		c0.9-0.1,1.7-0.1,2.6-0.2c0.1-7.6,0.1-16.1,0-23.9c0-8.2-0.1-15.6-0.2-22.5c-0.1-6.9-0.4-13.1-0.5-19c-0.1-5.9-0.1-11.3,0-17
		c0.1-5.7,0.2-11.7,0.4-18.3c0.2-6.6,0.4-13.8,0.7-23.5c0.3-9.7,0.8-21.9,1.2-31.4s0.9-16.2,1.5-23c0.6-6.9,1.5-13.9,2.3-19.9
		c0.8-6,1.7-11.1,2.9-15.5c1.2-4.4,2.7-8.3,4.7-12.3c2-4,4.5-8.3,7.2-12.2c2.7-3.9,5.5-7.5,8.5-10.7
		C366.5,138.3,369.5,135.5,372.3,133.3z M177.6,137.5c-2.4-2.5-4.5-4.4-6.4-5.9c-1.9-1.5-3.5-2.6-5.5-3.7c-1.7-1-3.6-2-5.5-3.1
		c0.1,0.9,0.1,1.8,0.2,2.7c1.9,1,3.9,2.1,6.2,3.7c2.8,1.9,6,4.7,9.3,7.9c3.3,3.3,6.7,7.1,10.2,12.1c3.5,4.9,7.2,11,9.7,16.3
		c2.4,5.3,3.5,9.9,4.3,14.7c0.8,4.8,1.2,9.7,1.9,15.7c0.7,6,1.6,12.9,2.3,21.1c0.7,8.2,1.3,17.6,1.7,28.2
		c0.4,10.6,0.8,22.3,1.1,33.6c0.4,11.3,0.8,22,0.7,33c0,11-0.5,22.1-0.7,33.2c-0.2,11,0,22,0.1,31.3c0.1,5.6,0.1,10.6,0.1,14.8
		c0.8,0,1.7,0,2.5,0c-0.1-2.6-0.1-5.3-0.2-8.1c-0.2-9.2-0.2-19.7,0-31.1c0.2-11.4,0.7-23.7,0.8-34c0.1-10.3-0.1-18.5-0.3-25.6
		c-0.2-7.1-0.4-13-0.6-19.2c-0.2-6.2-0.4-12.7-0.6-18.1c-0.2-5.4-0.2-9.6-0.5-15.1c-0.3-5.5-0.7-12.3-1.1-17.3
		c-0.4-5-0.9-8.2-1.3-12.3s-1-9.1-1.4-13.2c-0.4-4.1-0.7-7.2-1-9.4c-0.3-2.2-0.5-3.4-0.8-5.2c-0.2-1.9-0.5-4.4-1.2-7.4
		c-0.7-3-2-6.4-3.3-9.3c-1.3-2.9-2.7-5.2-4.2-7.7c-1.5-2.5-3.2-5.2-4.7-7.6c-1.5-2.4-3-4.5-5-7C182.6,142.9,180,139.9,177.6,137.5z"
		/>
	</g>
	<g class="cos">
		<path d="M191.8,392.6c-9.4-0.3-16.9-0.7-24.2-1.1c0.1,0.5,0.2,1,0.3,1.6c0.2,0.9,0.3,2,0.4,3.4
		c0.1,1.4,0,3.2-0.1,4.6c-0.1,1.4-0.2,2.5-0.2,3.2c0,0.7,0.1,0.9,0.5,1.3c0.5,0.4,1.4,0.8,2.5,1.3c1.1,0.5,2.4,0.9,4,1.3
		c1.5,0.4,3.3,0.7,4.8,0.9c1.6,0.2,3,0.4,4.8,0.5c1.8,0.1,4.1,0.1,6,0.1c2,0,3.6,0,5.1,0c1.4,0,2.5,0,4.1-0.1s3.4-0.1,5.3-0.2
		c1.9-0.1,3.7-0.2,5.9-0.3c2.2-0.1,4.7-0.2,6.9-0.4c2.2-0.1,4-0.2,6.1-0.3c2.1,0,4.5,0.1,6.7,0.2c2.2,0.1,4.1,0.2,7.3,0.3
		c3.2,0.1,7.6,0.1,12.3,0.1c4.7,0.1,9.8,0.2,13.8,0.2c4,0,7,0,11.1,0c4,0,9.1,0,12.5,0c3.5,0,5.4,0,7.5,0.1c2.1,0,4.4,0.1,6.4,0.2
		c2.1,0.1,3.9,0.1,5.8,0.2c2,0.1,4,0.2,6.8,0.3c2.8,0.2,6.2,0.4,9,0.6c2.8,0.2,4.9,0.4,7.3,0.6c2.5,0.2,5.3,0.4,7.6,0.6
		c2.3,0.2,4,0.2,5.7,0.3c1.7,0.1,3.4,0.1,5.5,0.2c2.1,0,4.6,0,6.8,0c2.2-0.1,4.2-0.2,6.1-0.4c1.9-0.2,3.8-0.5,5.6-0.8
		c1.8-0.3,3.6-0.7,4.9-1c1.4-0.3,2.4-0.7,3.1-1c0.7-0.3,1.1-0.5,1.4-0.7c0.2-0.2,0.3-0.5,0.3-1c0-0.5-0.1-1.3-0.2-2.1
		c-0.1-0.8-0.2-1.7-0.2-2.4c-0.1-0.7-0.1-1.3-0.2-1.8c-0.1-0.6-0.2-1.1-0.4-1.7c-0.2-0.6-0.4-1.2-0.6-1.7c-0.2-0.5-0.3-1-0.4-1.4
		s0-0.9,0.1-1.5c0.1-0.6,0.3-1.2,0.4-2.1c0.1-0.8,0.2-1.9,0.1-2.8c0-0.7-0.1-1.2-0.2-1.8c-0.9,0-1.9,0.1-3.2,0.3
		c-2.9,0.3-7.1,1-12.8,1.4c-5.6,0.4-12.7,0.6-19.8,1c-7.1,0.4-14.3,1-23.4,1.6c-9.1,0.6-20.3,1.4-31.3,1.5
		c-11,0.2-21.9-0.2-31.4-0.3c-9.4-0.1-17.4,0-27.9,0C215.6,393.1,202.5,392.9,191.8,392.6z"/>
	</g>
	<g class="punho">
		<path d="M4.1,373.2c-0.3,1.1-1,3.3-1.3,4.8c-0.2,1.5,0,2.3,2.3,3.4c2.3,1,6.6,2.3,10.2,3.3
		c3.5,1,6.3,1.7,8.4,2.2c2.1,0.6,3.7,1,4.8,1.2c1.2,0.2,2,0.2,2.5-0.1c0.6-0.3,0.9-0.9,1.5-2.1c0.6-1.2,1.5-2.9,2.1-3.9
		c0.5-1,0.6-1.2,0.7-1.3c0.1-0.1,0.1-0.1-1.4-0.8c-1.5-0.7-4.5-2-7.9-3.1s-7.4-1.9-10.6-2.6c-3.3-0.7-5.9-1.2-7.6-1.5
		c-1.7-0.3-2.4-0.5-2.8-0.5c-0.4-0.1-0.5-0.1-0.5,0C4.5,372,4.5,372.1,4.1,373.2z M514.8,386.7c0.6,0.8,1.2,1.7,1.9,2.1
		c0.7,0.4,1.5,0.3,3.9-0.3c2.4-0.6,6.4-1.8,10.4-2.9c4-1.2,8-2.4,10.6-3.3c2.7-0.9,4-1.4,4.7-2c0.7-0.5,0.7-1,0.4-2.2
		c-0.3-1.2-0.9-3-1.3-4.1c-0.4-1.1-0.7-1.5-1.4-1.9c-0.7-0.4-1.8-0.6-4.2-0.2c-2.4,0.5-6.1,1.7-9.5,3c-3.4,1.3-6.6,2.7-9.3,3.9
		c-2.7,1.2-5,2.2-6.3,2.8c-1.4,0.6-1.8,0.7-2.1,0.8c-0.3,0.1-0.3,0.3-0.2,0.6c0.1,0.3,0.5,0.8,0.9,1.4
		C513.7,385.1,514.3,385.9,514.8,386.7z"/>
	</g>
	<g class="cobre_ziper">	
		<path d="M258.6,402.4c0.3,2.7,0.6,5.3,0.9,6.7c0.2,1.3,0.3,1.4,0.9,1.5c0.6,0.1,1.6,0.3,5.5,0.4
		c3.9,0.1,10.5,0,13.9,0c3.4,0,3.4,0,3.5,0c0.1,0,0.3-0.1,0.4-4.5c0.1-4.4,0.2-13.2,0.4-27.6c0.2-14.5,0.6-34.6,0.9-61.7
		c0.3-27,0.6-61,0.4-86.3c-0.2-25.4-0.8-42.2-1-60.7c-0.2-18.5-0.1-38.5,0.1-53.8c0.2-15.2,0.6-25.5,0.7-36.6
		c0-11-0.3-22.7-0.7-29.9c-0.5-7.2-1.2-9.8-2.2-11.6c-1-1.9-2.3-3-4.8-3.8c-2.4-0.8-6-1.3-8.7-1.7c-2.8-0.4-4.8-0.8-6-0.9
		s-1.6,0-1.9,0.4c-0.3,0.4-0.5,1-0.9,2.1c-0.3,1.1-0.7,2.6-0.8,5.3c0,2.7,0.3,6.6,0.7,12.3c0.3,5.7,0.6,13.1,0.7,17.2
		c0,4.1-0.2,4.8-0.5,5.5c-0.3,0.7-0.5,1.3-0.7,2.6c-0.1,1.3-0.1,3.4,0,6.7c0.1,3.2,0.2,7.6,0.1,13c-0.1,5.4-0.4,11.9-0.8,17.5
		c-0.4,5.6-0.9,10.3-1.1,14.1c-0.2,3.9-0.1,7,0,9.5c0.1,2.5,0.1,4.5,0.2,7.4c0,2.9,0,6.6,0.1,11.3c0.1,4.7,0.3,10.3,0.3,14.2
		c0,4-0.4,6.3-0.6,8.3c-0.2,2-0.3,3.6-0.2,6.5c0.2,2.9,0.6,6.9,0.8,12.4c0.2,5.4,0.3,12.2,0.2,19.1c0,6.9-0.2,13.9-0.3,19.5
		c-0.1,5.6-0.2,9.6-0.2,15.7c0.1,6.1,0.3,14.1,0.7,22.7c0.4,8.6,1,17.8,1.2,23.3c0.1,5.6-0.2,7.5-0.5,9.5c-0.3,2-0.6,4.1-0.8,11.8
		c-0.2,7.7-0.2,21-0.3,34.3c-0.1,13.3-0.2,26.6-0.1,34.7C258.1,396.9,258.3,399.6,258.6,402.4z"/>
	</g>
	<g class="capuz">
		<path d="M177.8,62.9c0.6,0.3,1.4,0.6,2.5,1.1c2.7,1,7.3,2.5,12.2,4c4.9,1.5,10.2,3,16.8,4.6
		c6.6,1.7,14.4,3.5,19.9,4.8c5.5,1.3,8.5,2,10.5,2.4c2,0.4,2.9,0.5,3.6,0.4c0.7-0.1,1.1-0.5,1.8-1.7c0.7-1.2,1.6-3.1,2.2-4.5
		c0.5-1.4,0.7-2.2,0.9-2.9c0.1-0.7,0.3-1.2-0.8-2.2c-1.1-1-3.4-2.5-6.9-5.4c-3.5-2.9-8.3-7.2-10.8-10c-2.5-2.8-2.9-4.1-3.4-5.9
		c-0.5-1.8-1.3-4-1.5-6.2c-0.3-2.2-0.2-4.4,0.3-7s1.3-5.6,2.1-8s1.3-4.2,1.9-5.6c0.2-0.6,0.5-1.2,0.7-1.6c0.6-1.2,1.2-2.4,1.7-3.5
		c1-2,1.7-3.3,2.1-4.1c0.4-0.7,0.5-0.9,0.5-1c0-0.1,0-0.1,0-0.7c0-0.5,0-1.4,0.1-2.2c-5,1-10,2-14.8,3.2c-4.8,1.2-9.5,2.6-12.7,3.9
		c-3.2,1.3-5,2.7-6.9,4.1c-1.9,1.4-3.9,3-5.6,4.7c-1.7,1.7-3,3.5-3.9,5.5c-0.9,2-1.4,4.3-1.9,6.2c-0.5,1.9-1.1,3.6-2.3,5.7
		c-1.2,2.1-2.9,4.8-4.6,7.2c-1.7,2.4-3.4,4.5-4.4,6.3c-1,1.8-1.3,3.3-1.3,4.5c0,1.2,0.2,2.2,0.7,2.9C176.6,62.1,177,62.5,177.8,62.9
		z M317.7,37.1c0.2,1.8,0.2,3.8,0.1,5.5c-0.1,1.7-0.5,3-1.4,4.8c-0.9,1.8-2.4,4.1-5.4,7.2c-3,3.1-7.6,6.9-11,9.5
		c-3.4,2.7-5.7,4.2-6.6,5.5c-0.9,1.3-0.5,2.3-0.1,3.2c0.4,0.9,0.8,1.8,1.3,3c0.5,1.1,1.1,2.5,1.7,3.6c0.6,1,1,1.7,2,1.7
		c1,0,2.4-0.8,5.7-1.7c3.2-0.9,8.2-2.1,13.9-3.3c5.8-1.3,12.3-2.7,19.5-4.9c7.2-2.2,15-5.2,19.2-6.6c3.1-1,4.1-1.3,4.6-1.4
		c0.2-0.1,0.3-0.1,0.4-0.2c0.3-0.3,0.6-0.9,0.8-1.8c0.3-0.9,0.6-1.9,0.7-2.9c0.1-1,0-2-1-3.9c-1-1.9-2.9-4.7-5-7.4
		c-2.1-2.6-4.5-5.1-6.1-6.9c-1.5-1.9-2.2-3.2-2.8-4.9c-0.6-1.7-1-3.6-2.1-5.5c-1.1-1.9-2.8-3.6-4.6-5.2c-1.7-1.5-3.4-2.9-5.4-4.3
		c-1.9-1.4-4.1-2.9-6.8-4.2c-2.7-1.3-5.9-2.5-8.8-3.4c-2.9-0.9-5.4-1.6-7.2-2c-1.8-0.4-2.8-0.5-3.5-0.6c-0.2,0-0.3,0-0.5,0
		c0,0.1,0,0.2,0.1,0.4c0.2,0.9,0.6,2,1,3.2c0.4,1.2,0.8,2.6,1.4,4.2c0.5,1.6,1.2,3.5,1.9,5.6c0.7,2.1,1.5,4.4,2.2,6.4
		c0.6,2,1.1,3.7,1.6,5.5c0,0.1,0,0.1,0.1,0.2C317.6,35.9,317.6,36.5,317.7,37.1z"/>
	</g>
</svg>