<?xml version="1.0" encoding="utf-8"?>
<!-- Generator: Adobe Illustrator 19.0.0, SVG Export Plug-In . SVG Version: 6.00 Build 0)  -->
<svg version="1.1" class="detalhes_jaqueta adicionais" xmlns="http://www.w3.org/2000/svg" xmlns:xlink="http://www.w3.org/1999/xlink" x="0px" y="0px"
	width="550px" height="411.9px" viewBox="0 0 550 411.9" enable-background="new 0 0 550 411.9" xml:space="preserve">
	<g class="vies">
		<path d="M162.1,94.7c0.1-1.1,0.3-2.1,0.4-3.2c-0.3-0.1-0.7-0.2-1-0.1c-0.4,0.2-0.8,0.6-2.1,3
		c-1.3,2.4-3.6,6.7-6.4,11.6c-2.8,4.9-6,10.4-9.5,16.1c-3.5,5.7-7.1,11.6-10.6,17c-3.4,5.4-6.7,10.2-9.8,15
		c-3.1,4.8-6.1,9.6-8.6,13.9c-2.5,4.3-4.6,8.1-7,12.3c-2.4,4.2-5.1,8.8-7.6,13c-2.5,4.3-4.7,8.2-6.7,12c-2,3.8-3.9,7.6-6.3,11.9
		c-2.4,4.3-5.3,9.1-7.5,12.9c-2.3,3.7-4,6.3-6.5,10.9c-2.5,4.6-5.9,11.3-8.8,17.5c-3,6.2-5.6,11.9-8.8,18.3
		C52.1,283,48.2,290,45,295.7c-3.2,5.7-5.6,10.1-8.6,15.2c-3.1,5.1-6.8,10.9-10,16.7c-3.2,5.8-6,11.6-8,15.6c-2,4-3.1,6.3-3.6,7.5
		c-0.2,0.5-0.3,0.9-0.3,1.1c0.7,0.2,1.5,0.4,2.3,0.6c0.1-0.1,0.2-0.1,0.3-0.2c0.6-0.5,1.7-1.5,2.8-3.6c1.1-2.1,2.3-5.3,3.8-8.8
		s3.3-7.2,5.6-11.4c2.3-4.2,4.9-8.9,7.2-12.6c2.2-3.8,4-6.7,6.5-11c2.4-4.3,5.4-10.1,8.7-16c3.3-5.9,6.8-11.9,10-18.1
		c3.2-6.2,6-12.5,8.7-18.3c2.7-5.8,5.2-11,8.5-16.8c3.3-5.9,7.5-12.4,11.4-19.3c3.9-6.9,7.5-14.2,11.7-21.7
		c4.2-7.5,8.9-15.1,13.7-22.8c4.7-7.7,9.4-15.4,12.8-21.1c3.4-5.8,5.6-9.6,8.4-14.2c2.8-4.6,6.2-10,9.8-15.7
		c3.6-5.7,7.3-11.8,9.8-16c2.5-4.2,3.8-6.5,4.6-8.3c0.3-0.6,0.5-1.1,0.8-1.5C162,94.8,162.1,94.8,162.1,94.7z M385.3,91.9
		c0.2,0.9,0.4,1.7,0.6,2.5c0.1,0.5,0.2,0.9,0.3,1.4c0.3,0.4,0.6,1,1,1.5c1.5,2.3,3.9,5.9,6.7,10.5c2.7,4.7,5.8,10.4,9,16.2
		c3.2,5.8,6.7,11.6,10.3,17.4c3.6,5.8,7.4,11.6,11.2,17.4c3.8,5.8,7.7,11.6,11.4,17.8s7.5,12.7,11.1,19.3
		c3.6,6.6,7.2,13.2,11.1,20.3c4,7.1,8.4,14.7,12.3,22c3.9,7.3,7.2,14.1,10.6,20.9c3.4,6.8,6.8,13.5,10.7,20.7
		c3.9,7.2,8.3,15,11.9,21.5c3.6,6.5,6.5,11.6,9.4,16.7c2.9,5.1,5.9,10.1,8.6,15.2c2.7,5.1,5,10.2,6.6,13.8c1.6,3.6,2.4,5.8,3.1,6.8
		c0.1,0.2,0.2,0.3,0.4,0.4c0.6-0.1,1.1-0.3,1.6-0.4c0-0.7-0.5-2.1-1.9-5.4c-2.3-5.1-7.1-14.9-11.3-22.9c-4.2-8-7.8-14.2-11.9-21.4
		c-4.1-7.2-8.6-15.4-13.1-23.6c-4.5-8.2-8.8-16.6-13.3-25.2c-4.4-8.6-8.9-17.5-13.8-26.5c-4.9-9-10.2-18.2-15.3-27.2
		c-5.2-9.1-10.2-18-15.4-26.7c-5.2-8.7-10.5-17.1-15.7-25.6c-5.2-8.4-10.3-16.9-15.4-25.3c-5-8.5-10-17-13-22.4
		c-3-5.3-4.2-7.5-4.8-8.7c-0.6-1.2-0.7-1.4-0.8-1.5c-0.1-0.2-0.4-0.3-1-0.2C386.2,91.6,385.7,91.8,385.3,91.9z"/>
		<path d="M376,133.2c3-2.3,5.9-4.2,7.9-5.4c0.8-0.5,1.5-0.8,2.1-1.1
		c0.1-0.9,0.1-1.7,0.2-2.5c-2,0.9-4.1,2-6.5,3.6c-3.4,2.2-7.5,5.5-11.5,9.4c-4,3.9-7.9,8.5-11.8,14.1c-3.9,5.5-7.7,12-10.2,19.4
		c-2.5,7.4-3.5,15.6-4.6,24.2c-1,8.6-2.1,17.7-2.7,23.4c-0.6,5.7-0.9,7.9-1.4,17.7c-0.4,9.8-1.1,27.1-1.5,41.8
		c-0.4,14.7-0.6,26.7-0.8,35.1c-0.2,8.4-0.3,13.2-0.1,19.6c0.1,6.4,0.4,14.5,0.6,22.4c0.1,7.9,0.1,15.7-0.1,24.5
		c-0.2,8.8-0.4,18.7-0.6,23.6c-0.1,4.9-0.1,4.9-0.1,5.2c0,0.1,0,0.3,0,0.5c0.9-0.2,1.7-0.5,2.5-0.7c0.2-0.1,0.3-0.1,0.5-0.1
		c0.1-7.5,0.3-15,0.4-22.6c0.2-8.4,0.3-16.9,0.2-28c-0.1-11.1-0.6-24.8-0.8-36.7c-0.2-11.9,0-22,0.4-33.3s1-23.8,1.3-33.6
		c0.3-9.8,0.4-16.9,1-25.3c0.6-8.4,1.8-18,2.7-26.2c0.9-8.2,1.6-14.9,2.4-20.3c0.9-5.4,2-9.6,3.9-13.9c1.9-4.3,4.7-8.9,7.7-13.5
		c3-4.6,6.3-9.1,9.5-12.7C369.8,138.1,373,135.4,376,133.2z M170.8,129.6c-2.8-2.1-5.5-3.9-8.3-5.6c0.1,1,0.2,2.1,0.3,3.2
		c1.3,0.7,3,1.7,4.8,2.9c2.8,1.9,5.9,4.4,8.9,7.3c3,2.9,6,6.1,8.7,9.4c2.8,3.3,5.4,6.7,7.6,10.2c2.1,3.5,3.8,7.2,5.4,11.1
		c1.6,3.9,3.2,8,4.2,12.4c0.9,4.4,1.2,9,1.7,14.4c0.5,5.4,1.3,11.7,2,18.6c0.7,6.9,1.3,14.4,1.8,20.3c0.4,5.9,0.7,10.1,1,17.4
		c0.3,7.3,0.6,17.5,0.8,26.2c0.2,8.7,0.4,15.8,0.5,23.7c0.1,7.8,0,16.4-0.1,28.8c-0.1,12.4-0.3,28.7-0.5,42.4
		c-0.2,13.7-0.5,24.8-0.6,30.3c-0.1,5.5,0,5.5,0.3,5.7c0.4,0.2,1.1,0.5,1.4,0.7c0.3,0.2,0.4,0.2,0.6,0.1c0.3,0,0.8-0.1,1-2.9
		c0.2-2.8,0.1-8.3,0-16.4c-0.2-8-0.4-18.5-0.3-28.9c0.1-10.3,0.5-20.5,0.6-32.9c0.1-12.4-0.2-27.1-0.6-41
		c-0.4-13.9-0.8-27.1-1.2-37.6c-0.4-10.5-0.7-18.3-1.5-26.8c-0.8-8.5-2.1-17.8-2.9-24.4c-0.7-6.5-0.9-10.3-1.2-13.3
		c-0.3-3-0.8-5.3-1.7-8.3c-0.9-2.9-2.1-6.5-3.6-10c-1.4-3.5-3.1-7.1-5.3-10.8c-2.2-3.7-5-7.4-7.6-10.6s-4.9-5.6-7.6-8.2
		C176.9,134.7,173.8,131.9,170.8,129.6z"/>
	</g>
	<g class="cos">
		<path d="M337.8,407.7c1.8-0.5,3.2-0.9,4.8-1.6c1.8-0.7,4-1.7,5.8-2.4c1.7-0.8,3-1.4,4.4-2.1
		c1.4-0.7,2.8-1.5,4.1-2.2c1.3-0.7,2.5-1.4,3.8-2.2c1.2-0.8,2.5-1.6,3.6-2.4c1.1-0.8,2.1-1.4,2.9-2.1c0.8-0.6,1.6-1.3,2.2-1.8
		c0.6-0.6,1-1.1,1.5-1.7c0.4-0.6,0.9-1.3,1.5-2.2c0.6-0.9,1.4-2.2,2-3.2c0.6-1,1-1.8,1.2-2.5c0.2-0.7,0.3-1.2,0.2-1.8
		c-0.1-0.6-0.3-1.4-0.5-2.1c-0.2-0.8-0.5-1.5-0.7-2.1s-0.2-0.8-0.2-1.1c0-0.2,0-0.4,0.1-0.7c0,0,0,0-2.4,0.5
		c-2.4,0.5-7.1,1.4-12.8,2.5c-5.8,1.1-12.6,2.2-17.7,3.4c-1.2,0.3-2.3,0.6-3.3,0.9c-1,0.3-1.9,0.5-2.8,0.8c-2.4,0.7-4.6,1.4-7.3,2.1
		c-4.9,1.3-11.1,2.5-16.6,3.3c-5.5,0.8-10.1,1-19.7,1.1c-9.6,0.1-24,0-36-0.1c-12-0.1-21.4-0.2-30.3-1.1c-4.6-0.4-9.1-1.1-13.3-1.8
		c-1-0.2-1.9-0.3-2.9-0.5c-2.9-0.6-5.7-1.2-8.4-1.8c-7.5-1.8-14.3-3.7-19.3-5.3c-5-1.6-8.1-2.8-11.2-4c0.2,0.4,0.3,0.6,0.3,1.1
		c0,0.5,0,1.3,0,1.8c0,0.5,0,0.8-0.1,1.3c-0.1,0.5-0.3,1.2-0.4,1.8c-0.1,0.6-0.2,1.1-0.2,1.6c0,0.5,0.2,1.1,0.5,1.6
		c0.3,0.5,0.7,0.9,1.3,1.5c0.6,0.6,1.4,1.4,2.2,2.3c0.7,0.9,1.4,1.8,2.3,2.9c1,1.1,2.3,2.4,3.8,3.7c1.5,1.3,3.1,2.7,5,4
		s4.1,2.8,5.8,3.9c1.7,1.1,3,1.7,4.8,2.6c1.8,0.9,4.2,1.9,6.8,2.9c2.6,1,5.3,1.8,7.9,2.5c2.6,0.7,5,1.2,7.2,1.6
		c2.2,0.4,4.1,0.6,5.7,0.8c1.7,0.2,3.1,0.3,6.4,0.3c3.3,0,8.5-0.1,14.4-0.1c5.9,0,12.5,0,20.5,0c8,0,17.3-0.1,24.2-0.1
		c7,0,11.6,0,15.3,0c3.8,0,6.8,0,9.2,0c2.5-0.1,4.4-0.2,6-0.3c1.6-0.1,2.9-0.3,4.6-0.5c1.7-0.3,3.8-0.6,6.1-1.1
		c1.4-0.3,2.9-0.7,4.3-1.1c0.9-0.2,1.7-0.5,2.5-0.7C337.5,407.8,337.7,407.8,337.8,407.7z"/>
	</g>
	<g class="punho">	
		<path d="M547.5,346.8c-0.2-0.5-0.4-0.9-0.6-1.2c-0.4-0.7-0.5-0.7-3.1-0.1c-2.6,0.6-7.6,1.8-11.7,3.3
		c-0.2,0.1-0.5,0.2-0.7,0.3c-0.8,0.3-1.5,0.6-2.2,0.9c-2.7,1.2-4.7,2.3-6,3.2c-1.7,1.1-2,1.7-2.1,2.1c0,0,0,0.1,0,0.1
		c0,0.4,0.2,0.7,0.6,1.6c0.5,0.9,1.2,2.3,1.8,3.3c0.6,1,1,1.6,2.6,1.4c1.7-0.2,4.6-1.1,7.5-2.2c2.9-1.1,5.8-2.4,8.2-3.4
		c2.3-1,4-1.7,5.1-2.2c1.1-0.5,1.6-0.7,1.9-1.2c0.3-0.5,0.5-1.3,0.4-2c-0.1-0.7-0.4-1.3-0.8-2.2C548.1,348,547.8,347.4,547.5,346.8z
		 M19.5,349.5c-0.8-0.3-1.5-0.5-2.2-0.8c-0.4-0.2-0.9-0.3-1.3-0.5c-2.1-0.7-3.9-1.3-5.4-1.8c-1.8-0.5-3-0.8-4-0.9
		c-1-0.2-1.6-0.2-2.1-0.2c-0.4,0-0.7-0.1-0.8-0.1c-0.1,0-0.1,0-0.3,0.8c0,0.1,0,0.2-0.1,0.4c-0.2,0.9-0.5,2.3-0.6,3.5
		c-0.1,1.3,0,2.2,3,3.7c2.9,1.5,8.6,3.8,12.4,5.2c3.8,1.4,5.7,2,6.9,2.2c1.2,0.2,1.6,0.1,2-0.1c0.4-0.2,0.8-0.4,1.2-0.8
		c0.4-0.4,0.9-1.1,1.3-2.1c0.4-1,0.8-2.2,1-2.8c0.2-0.6,0.2-0.6-0.4-1c-0.1,0-0.1-0.1-0.2-0.1c-0.8-0.4-2.4-1.3-4.7-2.3
		C23.6,351,21.6,350.2,19.5,349.5z"/>
	</g>
	<g class="capuz">	
		<path d="M316.6,16c-2.8-0.2-6.1-0.2-10-0.3c-7.9-0.1-18.3-0.1-26.9-0.4c-8.6-0.3-15.6-0.8-22.1-1.1
		c-6.5-0.3-12.6-0.4-18-0.4c-1.7,0-3.3,0-4.8,0.1c-3.3,0.1-6.2,0.3-8.4,0.9c-3.2,0.8-5.2,2.1-6.8,3.4c-1.7,1.3-3.1,2.5-4.3,4.5
		c-1.2,2-2.1,4.8-3.9,7.9c-1.8,3.1-4.4,6.4-6.3,9c-2,2.6-3.3,4.4-3.9,6.2c-0.7,1.8-0.7,3.7-0.8,5.3c0,0.1,0,0.2,0,0.3
		c0,1.4,0,2.6,0.9,4.6c1,2.1,2.9,5.1,6.3,9.9s8,11.4,11.7,16.2c3.7,4.8,6.4,7.8,10.3,11c3.9,3.3,9,6.8,14.4,9.5
		c5.4,2.7,11,4.7,15.9,5.8c4.9,1.2,9,1.5,14,1.7c5,0.1,10.8,0,16.1-0.9c5.3-0.9,10-2.5,14.4-5c4.4-2.4,8.5-5.6,13.5-11.1
		c5-5.4,11-13.1,15-18.6c4-5.5,6-8.7,7.7-11.8c1.7-3.1,3.2-6,4-8.1c0.5-1.4,0.8-2.4,1-3.2c0.1-0.4,0.2-0.8,0.2-1
		c0.1-0.7,0.2-0.8,0.1-1.5c-0.1-0.7-0.4-2.1-1-3.3c-0.6-1.2-1.5-2.3-3.3-4.7c-1.8-2.4-4.4-6.2-5.7-9.1s-1.4-4.9-1.9-6.5
		s-1.3-3-2.8-4.4c-1.5-1.4-3.5-3-7.3-3.8C322,16.4,319.6,16.1,316.6,16z"/>
	</g>
</svg>